<svg width="357" height="521" xmlns="http://www.w3.org/2000/svg" xmlns:xlink="http://www.w3.org/1999/xlink" xml:space="preserve" overflow="hidden"><g transform="translate(-1431 -1345)"><path d="M1575.08 1528C1490.31 1528 1443.61 1565.57 1437.42 1614.97 1430.85 1649.35 1431.23 1729 1431.23 1770.89 1431.23 1785.73 1431.23 1806.02 1431.04 1824.05 1429.73 1859.55 1460.86 1865 1460.86 1865L1715.56 1865C1719.5 1836.07 1721 1804.33 1721 1770.89 1721 1636.76 1698.31 1528 1575.08 1528Z" fill="#D0CECE" fill-rule="evenodd"/><path d="M1626.27 1528C1502.85 1528 1482.19 1636.9 1482.19 1771.2 1482.19 1788.32 1482.19 1812.39 1482 1831.96 1482.19 1865.44 1515.44 1865.44 1515.44 1865.44L1727.14 1866C1727.14 1866 1752.87 1859.98 1754 1834.02 1754 1815.22 1754 1791.7 1754 1774.59 1754 1640.48 1749.68 1528 1626.27 1528Z" fill="#DEEBF7" fill-rule="evenodd"/><path d="M1558.04 1685.57C1512.77 1647.8 1487.79 1566.06 1482.34 1562.11L1516.72 1539C1516.72 1539 1442.15 1554.41 1437.08 1609.66 1435.2 1641.6 1466.94 1695.91 1511.46 1732.93 1555.97 1769.95 1619.65 1777.28 1658.9 1774.46 1692.15 1772.01 1676.37 1729.92 1666.41 1715.08 1666.41 1715.08 1602.18 1722.22 1558.04 1685.57Z" fill="#D0CECE" fill-rule="evenodd"/><path d="M1724.98 1577C1724.04 1576.81 1747.93 1611.38 1743.6 1648.39 1741.72 1667.36 1727.43 1686.71 1718.77 1692.72 1696.76 1707.75 1677.95 1715.45 1652.37 1716.39 1657.26 1724.09 1644.09 1776.88 1656.51 1773.88 1656.51 1773.88 1700.53 1777.07 1755.27 1734.05 1775.58 1718.46 1784.8 1691.03 1786.49 1683.52 1789.13 1672.06 1787.62 1657.4 1787.06 1652.33 1784.05 1618.71 1731.94 1578.88 1724.98 1577Z" fill="#D0CECE" fill-rule="evenodd"/><path d="M1743 1437.41C1743 1488.49 1701.53 1530 1650.5 1530 1599.47 1530 1558 1488.49 1558 1437.41 1558 1386.32 1599.47 1345 1650.5 1345 1701.53 1345 1743 1386.32 1743 1437.41Z" fill="#DEEBF7" fill-rule="evenodd"/><path d="M1634 1437.41C1634 1488.49 1592.53 1530 1541.5 1530 1490.47 1530 1449 1488.49 1449 1437.41 1449.19 1386.32 1490.47 1345 1541.5 1345 1592.53 1345 1634 1386.32 1634 1437.41Z" fill="#D0CECE" fill-rule="evenodd"/></g></svg>