<svg width="556" height="553" viewBox="0 0 556 553" fill="none" xmlns="http://www.w3.org/2000/svg">
<path d="M274 75C405.996 75 513 182.004 513 314C513 445.996 405.996 553 274 553C142.004 553 35 445.996 35 314C35 182.004 142.004 75 274 75ZM274 89C149.736 89 49 189.736 49 314C49 438.264 149.736 539 274 539C398.264 539 499 438.264 499 314C499 189.736 398.264 89 274 89Z" fill="#34DADD"/>
<path d="M273.5 114C383.681 114 473 203.319 473 313.5C473 423.681 383.681 513 273.5 513C163.319 513 74 423.681 74 313.5C74 203.319 163.319 114 273.5 114ZM273.5 127.493C170.771 127.493 87.4932 210.771 87.4932 313.5C87.4932 416.229 170.771 499.508 273.5 499.508C376.229 499.508 459.508 416.229 459.508 313.5C459.508 210.771 376.229 127.493 273.5 127.493Z" fill="#34DADD"/>
<g filter="url(#filter0_d_127_37)">
<circle cx="273.613" cy="109.612" r="81.5799" transform="rotate(-63.1794 273.613 109.612)" fill="#FDFDFD"/>
</g>
<g filter="url(#filter1_d_127_37)">
<circle cx="109.613" cy="418.612" r="81.5799" transform="rotate(-63.1794 109.613 418.612)" fill="#FDFDFD"/>
</g>
<g filter="url(#filter2_d_127_37)">
<circle cx="445.613" cy="418.612" r="81.5799" transform="rotate(-63.1794 445.613 418.612)" fill="#FDFDFD"/>
</g>
<circle cx="273.613" cy="109.612" r="81.5799" transform="rotate(-63.1794 273.613 109.612)" fill="url(#paint0_linear_127_37)" fill-opacity="0.9"/>
<path d="M252.789 133.794L219.749 133.818L219.713 83.7682L231.333 83.7597L231.362 123.66L252.782 123.644L252.789 133.794ZM271.906 133.78L260.287 133.788L260.25 83.7384L279.99 83.7239C283.49 83.7213 286.57 84.3957 289.231 85.7471C291.939 87.0985 294.04 88.9869 295.535 91.4125C297.03 93.7914 297.779 96.5675 297.781 99.7408C297.784 102.914 297.039 105.715 295.548 108.142C294.056 110.57 291.958 112.462 289.252 113.817C286.593 115.126 283.513 115.781 280.013 115.784L271.193 115.79L271.186 105.92L280.006 105.914C281.873 105.913 283.342 105.351 284.415 104.231C285.534 103.11 286.093 101.616 286.091 99.7494C286.09 97.8361 285.529 96.3432 284.408 95.2707C283.334 94.1515 281.864 93.5925 279.997 93.5939L271.877 93.5999L271.906 133.78ZM320.119 83.6944L329.499 83.6875L329.536 133.738L317.916 133.746L317.888 96.0161L306.203 103.585L306.195 92.0347L320.119 83.6944Z" fill="white"/>
<circle cx="445.613" cy="418.612" r="81.5799" transform="rotate(-63.1794 445.613 418.612)" fill="url(#paint1_linear_127_37)" fill-opacity="0.9"/>
<path d="M423.205 442.186L390.169 441.641L390.994 391.598L402.613 391.79L401.955 431.684L423.372 432.037L423.205 442.186ZM442.319 442.501L430.701 442.31L431.526 392.266L451.263 392.592C454.763 392.649 457.831 393.377 460.468 394.774C463.152 396.172 465.221 398.096 466.674 400.547C468.128 402.951 468.829 405.74 468.777 408.913C468.724 412.086 467.931 414.873 466.398 417.275C464.865 419.676 462.734 421.531 460.006 422.84C457.325 424.103 454.234 424.705 450.735 424.647L441.916 424.502L442.079 414.633L450.897 414.779C452.764 414.81 454.243 414.274 455.334 413.172C456.473 412.07 457.057 410.586 457.088 408.72C457.12 406.807 456.584 405.305 455.482 404.213C454.427 403.075 452.967 402.491 451.1 402.46L442.982 402.327L442.319 442.501ZM508.479 443.592L473.974 443.023L474.131 433.504L492.6 417.357C493.926 416.165 494.97 415.109 495.732 414.188C496.542 413.221 497.117 412.297 497.458 411.416C497.846 410.536 498.048 409.629 498.063 408.696C498.096 406.736 497.491 405.162 496.251 403.975C495.011 402.741 493.318 402.106 491.172 402.071C489.305 402.04 487.499 402.594 485.753 403.732C484.055 404.824 482.37 406.523 480.699 408.829L473.473 401.219C475.949 398.226 478.694 395.961 481.706 394.424C484.766 392.841 487.952 392.077 491.265 392.131C494.998 392.193 498.207 392.899 500.892 394.25C503.577 395.555 505.624 397.409 507.031 399.812C508.486 402.17 509.186 404.982 509.132 408.248C509.094 410.534 508.662 412.674 507.836 414.667C507.01 416.661 505.693 418.693 503.885 420.763C502.125 422.788 499.73 425.082 496.701 427.646L489.247 433.894L508.634 434.213L508.479 443.592Z" fill="white"/>
<circle cx="109.613" cy="418.612" r="81.5799" transform="rotate(-63.1794 109.613 418.612)" fill="url(#paint2_linear_127_37)" fill-opacity="0.9"/>
<path d="M82.7817 441.579L49.7467 442.154L48.8762 392.112L60.4944 391.909L61.1884 431.803L82.6052 431.431L82.7817 441.579ZM101.896 441.247L90.2777 441.449L89.4072 391.406L109.144 391.063C112.644 391.002 115.735 391.625 118.418 392.932C121.148 394.238 123.28 396.091 124.816 398.492C126.35 400.845 127.145 403.609 127.2 406.781C127.255 409.954 126.558 412.767 125.107 415.219C123.656 417.671 121.589 419.598 118.906 420.998C116.269 422.351 113.201 423.057 109.702 423.118L100.883 423.272L100.711 413.403L109.53 413.25C111.397 413.217 112.857 412.632 113.91 411.493C115.011 410.354 115.545 408.851 115.512 406.985C115.479 405.072 114.893 403.588 113.754 402.535C112.662 401.433 111.182 400.899 109.316 400.932L101.197 401.073L101.896 441.247ZM131.679 433.728L138.756 426.043C140.52 428.16 142.297 429.692 144.087 430.641C145.923 431.543 147.867 431.976 149.92 431.94C151.647 431.91 153.135 431.604 154.385 431.022C155.635 430.44 156.602 429.653 157.285 428.661C157.967 427.623 158.296 426.427 158.272 425.074C158.241 423.301 157.541 421.913 156.17 420.91C154.799 419.907 152.783 419.428 150.124 419.475L146.064 419.545L145.898 409.957L149.957 409.886C151.963 409.851 153.518 409.334 154.621 408.335C155.77 407.335 156.331 406.018 156.302 404.385C156.276 402.892 155.671 401.642 154.487 400.636C153.348 399.582 151.822 399.072 149.909 399.105C147.763 399.143 145.927 399.595 144.402 400.461C142.924 401.327 141.364 402.871 139.722 405.093L132.305 397.311C134.5 394.659 137.172 392.676 140.323 391.361C143.473 389.999 146.985 389.285 150.858 389.217C154.217 389.159 157.19 389.714 159.778 390.882C162.412 392.05 164.471 393.694 165.955 395.816C167.484 397.889 168.273 400.303 168.321 403.056C168.362 405.435 167.745 407.523 166.47 409.319C165.194 411.115 163.375 412.523 161.012 413.544C158.65 414.566 155.859 415.104 152.639 415.16L153.994 412.546C157.353 412.488 160.232 412.974 162.63 414.006C165.075 414.991 166.944 416.452 168.238 418.389C169.531 420.327 170.203 422.696 170.251 425.495C170.306 428.622 169.537 431.389 167.946 433.797C166.353 436.158 164.122 438.017 161.252 439.374C158.381 440.731 155.01 441.443 151.137 441.51C146.891 441.584 143.194 440.995 140.045 439.743C136.895 438.444 134.106 436.439 131.679 433.728Z" fill="white"/>
<defs>
<filter id="filter0_d_127_37" x="188.015" y="28.0146" width="171.195" height="171.195" filterUnits="userSpaceOnUse" color-interpolation-filters="sRGB">
<feFlood flood-opacity="0" result="BackgroundImageFix"/>
<feColorMatrix in="SourceAlpha" type="matrix" values="0 0 0 0 0 0 0 0 0 0 0 0 0 0 0 0 0 0 127 0" result="hardAlpha"/>
<feOffset dy="4"/>
<feGaussianBlur stdDeviation="2"/>
<feComposite in2="hardAlpha" operator="out"/>
<feColorMatrix type="matrix" values="0 0 0 0 0.985577 0 0 0 0 0.944511 0 0 0 0 0.944511 0 0 0 1 0"/>
<feBlend mode="normal" in2="BackgroundImageFix" result="effect1_dropShadow_127_37"/>
<feBlend mode="normal" in="SourceGraphic" in2="effect1_dropShadow_127_37" result="shape"/>
</filter>
<filter id="filter1_d_127_37" x="24.0146" y="337.015" width="171.195" height="171.195" filterUnits="userSpaceOnUse" color-interpolation-filters="sRGB">
<feFlood flood-opacity="0" result="BackgroundImageFix"/>
<feColorMatrix in="SourceAlpha" type="matrix" values="0 0 0 0 0 0 0 0 0 0 0 0 0 0 0 0 0 0 127 0" result="hardAlpha"/>
<feOffset dy="4"/>
<feGaussianBlur stdDeviation="2"/>
<feComposite in2="hardAlpha" operator="out"/>
<feColorMatrix type="matrix" values="0 0 0 0 0.985577 0 0 0 0 0.944511 0 0 0 0 0.944511 0 0 0 1 0"/>
<feBlend mode="normal" in2="BackgroundImageFix" result="effect1_dropShadow_127_37"/>
<feBlend mode="normal" in="SourceGraphic" in2="effect1_dropShadow_127_37" result="shape"/>
</filter>
<filter id="filter2_d_127_37" x="360.015" y="337.015" width="171.195" height="171.195" filterUnits="userSpaceOnUse" color-interpolation-filters="sRGB">
<feFlood flood-opacity="0" result="BackgroundImageFix"/>
<feColorMatrix in="SourceAlpha" type="matrix" values="0 0 0 0 0 0 0 0 0 0 0 0 0 0 0 0 0 0 127 0" result="hardAlpha"/>
<feOffset dy="4"/>
<feGaussianBlur stdDeviation="2"/>
<feComposite in2="hardAlpha" operator="out"/>
<feColorMatrix type="matrix" values="0 0 0 0 0.985577 0 0 0 0 0.944511 0 0 0 0 0.944511 0 0 0 1 0"/>
<feBlend mode="normal" in2="BackgroundImageFix" result="effect1_dropShadow_127_37"/>
<feBlend mode="normal" in="SourceGraphic" in2="effect1_dropShadow_127_37" result="shape"/>
</filter>
<linearGradient id="paint0_linear_127_37" x1="303.115" y1="195.419" x2="252.311" y2="35.0947" gradientUnits="userSpaceOnUse">
<stop offset="0.173077" stop-color="#F20000"/>
<stop offset="0.961538" stop-color="#8C0000"/>
</linearGradient>
<linearGradient id="paint1_linear_127_37" x1="463.233" y1="497.54" x2="428.151" y2="352.798" gradientUnits="userSpaceOnUse">
<stop offset="0.173077" stop-color="#2E2EE5"/>
<stop offset="1" stop-color="#0000CA"/>
</linearGradient>
<linearGradient id="paint2_linear_127_37" x1="105.73" y1="489.363" x2="103.557" y2="353.195" gradientUnits="userSpaceOnUse">
<stop offset="0.0961538" stop-color="#008F00"/>
<stop offset="1" stop-color="#002900"/>
</linearGradient>
</defs>
</svg>
