<svg width="516" height="500" viewBox="0 0 516 500" fill="none" xmlns="http://www.w3.org/2000/svg">
<path d="M246.356 152.762C231.544 157.141 218.186 165.952 208.48 177.691C206.049 180.621 203.873 183.738 201.876 186.95C199.886 190.169 198.358 193.636 196.734 197.028C193.921 204.024 191.899 211.323 191.113 218.783C190.428 226.239 190.687 233.74 192.044 241.04C193.529 248.314 195.98 255.33 199.308 261.896C202.804 268.383 207.172 274.331 212.221 279.608C217.411 284.76 223.276 289.131 229.577 292.678C235.998 295.994 242.746 298.666 249.796 300.104C256.841 301.458 264.024 301.987 271.119 301.336C278.197 300.605 285.136 298.975 291.704 296.389C298.217 293.667 304.309 290.089 309.824 285.787C315.214 281.314 319.956 276.162 323.936 270.485C324.867 269.024 325.74 267.526 326.641 266.053C327.076 265.309 327.556 264.589 327.954 263.824L329.122 261.515C330.595 258.398 331.939 255.222 332.937 251.931C337.097 238.827 337.179 224.629 333.382 211.68C336.371 224.845 335.355 238.751 330.571 251.105C329.417 254.21 327.933 257.176 326.348 260.061L325.098 262.194C324.674 262.899 324.171 263.556 323.712 264.239C322.768 265.586 321.855 266.953 320.894 268.278C316.791 273.412 312.047 277.949 306.801 281.789C301.428 285.461 295.618 288.393 289.535 290.512C283.396 292.493 277.029 293.563 270.662 293.833C264.275 294.022 257.938 293.131 251.832 291.573C245.723 289.929 240.001 287.208 234.626 284.019C229.369 280.598 224.603 276.547 220.477 271.928C216.494 267.183 213.15 261.969 210.567 256.402C208.153 250.754 206.503 244.838 205.646 238.824C204.917 232.783 205.113 226.703 206.016 220.773C207.019 214.841 209.02 209.166 211.55 203.793C213.036 201.205 214.362 198.549 216.085 196.125C217.811 193.717 219.647 191.402 221.666 189.26C229.72 180.682 240.285 174.697 251.542 172.127L246.356 152.762Z" fill="#080200"/>
<path d="M286.291 151.767L239.136 139.131L251.772 186.287L286.291 151.767Z" fill="#080200"/>
<path d="M455.27 223.312C455.396 226.205 455.464 229.114 455.464 232.038C455.464 311.438 408.255 379.81 340.377 410.622C339.867 405.144 338.816 399.823 337.276 394.713C398.034 365.096 439.897 302.736 439.897 230.597C439.897 229.001 439.875 227.41 439.834 225.824C445.133 225.477 450.294 224.623 455.27 223.312ZM63.5811 224.008C67.3019 224.846 71.1186 225.43 75.0127 225.74C74.9705 227.354 74.9492 228.973 74.9492 230.597C74.9492 303.932 118.213 367.161 180.608 396.158C179.32 400.744 178.421 405.493 177.952 410.368C110.371 379.436 63.419 311.222 63.4189 232.038C63.4189 229.348 63.4738 226.671 63.5811 224.008ZM259.441 36.0156C306.633 36.0157 349.928 52.6945 383.758 80.4766C380.139 83.3478 376.769 86.5201 373.687 89.9551C342.116 63.8275 301.605 48.1231 257.424 48.123C213.55 48.123 173.294 63.6092 141.82 89.4111C139.294 86.646 136.579 84.056 133.697 81.6602C167.733 53.1692 211.583 36.0156 259.441 36.0156Z" fill="#00DBBA"/>
<path d="M30.4219 207.972C34.8471 211.539 39.6532 214.651 44.7686 217.242C44.52 221.476 44.3936 225.742 44.3936 230.038C44.3936 320.099 99.757 397.226 178.306 429.25C179.106 435.2 180.546 440.946 182.557 446.417C93.3301 414.873 29.4034 329.779 29.4033 229.75C29.4033 222.405 29.7478 215.14 30.4219 207.972ZM487.708 206.194C488.497 213.939 488.902 221.797 488.902 229.75C488.902 329.779 424.976 414.872 335.749 446.416C337.731 441.021 339.16 435.36 339.966 429.499C418.839 397.627 474.489 320.333 474.489 230.038C474.489 225.241 474.33 220.48 474.021 215.761C478.914 213.038 483.499 209.828 487.708 206.194ZM259.153 0C321.096 7.6491e-05 377.314 24.5139 418.634 64.3691C412.987 65.4763 407.55 67.166 402.386 69.373C364.39 35.5442 314.316 14.9903 259.441 14.9902C204.106 14.9902 153.651 35.8904 115.542 70.2275C110.382 67.8619 104.933 66.0188 99.2627 64.7656C140.621 24.6766 197.005 0 259.153 0Z" fill="#00DEEA"/>
<circle cx="259.153" cy="418.277" r="81.5799" fill="url(#paint0_radial_121_49)" fill-opacity="0.77"/>
<path d="M233.57 445H200.53V394.95H212.15V434.85H233.57V445ZM252.687 445H241.067V394.95H260.807C264.307 394.95 267.387 395.627 270.047 396.98C272.754 398.333 274.854 400.223 276.347 402.65C277.84 405.03 278.587 407.807 278.587 410.98C278.587 414.153 277.84 416.953 276.347 419.38C274.854 421.807 272.754 423.697 270.047 425.05C267.387 426.357 264.307 427.01 260.807 427.01H251.987V417.14H260.807C262.674 417.14 264.144 416.58 265.217 415.46C266.337 414.34 266.897 412.847 266.897 410.98C266.897 409.067 266.337 407.573 265.217 406.5C264.144 405.38 262.674 404.82 260.807 404.82H252.687V445ZM282.596 438L289.806 430.44C291.533 432.587 293.283 434.15 295.056 435.13C296.876 436.063 298.813 436.53 300.866 436.53C302.593 436.53 304.086 436.25 305.346 435.69C306.606 435.13 307.586 434.36 308.286 433.38C308.986 432.353 309.336 431.163 309.336 429.81C309.336 428.037 308.66 426.637 307.306 425.61C305.953 424.583 303.946 424.07 301.286 424.07H297.226V414.48H301.286C303.293 414.48 304.856 413.99 305.976 413.01C307.143 412.03 307.726 410.723 307.726 409.09C307.726 407.597 307.143 406.337 305.976 405.31C304.856 404.237 303.34 403.7 301.426 403.7C299.28 403.7 297.436 404.12 295.896 404.96C294.403 405.8 292.816 407.317 291.136 409.51L283.856 401.6C286.096 398.987 288.803 397.05 291.976 395.79C295.15 394.483 298.673 393.83 302.546 393.83C305.906 393.83 308.87 394.437 311.436 395.65C314.05 396.863 316.08 398.543 317.526 400.69C319.02 402.79 319.766 405.217 319.766 407.97C319.766 410.35 319.113 412.427 317.806 414.2C316.5 415.973 314.656 417.35 312.276 418.33C309.896 419.31 307.096 419.8 303.876 419.8L305.276 417.21C308.636 417.21 311.506 417.747 313.886 418.82C316.313 419.847 318.156 421.34 319.416 423.3C320.676 425.26 321.306 427.64 321.306 430.44C321.306 433.567 320.49 436.32 318.856 438.7C317.223 441.033 314.96 442.853 312.066 444.16C309.173 445.467 305.79 446.12 301.916 446.12C297.67 446.12 293.983 445.467 290.856 444.16C287.73 442.807 284.976 440.753 282.596 438Z" fill="white"/>
<circle cx="434.42" cy="144.423" r="81.5799" fill="url(#paint1_radial_121_49)" fill-opacity="0.67"/>
<path d="M408.57 165H375.53V114.95H387.15V154.85H408.57V165ZM427.687 165H416.067V114.95H435.807C439.307 114.95 442.387 115.627 445.047 116.98C447.754 118.333 449.854 120.223 451.347 122.65C452.84 125.03 453.587 127.807 453.587 130.98C453.587 134.153 452.84 136.953 451.347 139.38C449.854 141.807 447.754 143.697 445.047 145.05C442.387 146.357 439.307 147.01 435.807 147.01H426.987V137.14H435.807C437.674 137.14 439.144 136.58 440.217 135.46C441.337 134.34 441.897 132.847 441.897 130.98C441.897 129.067 441.337 127.573 440.217 126.5C439.144 125.38 437.674 124.82 435.807 124.82H427.687V165ZM493.856 165H459.346V155.48L477.546 139.03C478.853 137.817 479.88 136.743 480.626 135.81C481.42 134.83 481.98 133.897 482.306 133.01C482.68 132.123 482.866 131.213 482.866 130.28C482.866 128.32 482.236 126.757 480.976 125.59C479.716 124.377 478.013 123.77 475.866 123.77C474 123.77 472.203 124.353 470.476 125.52C468.796 126.64 467.14 128.367 465.506 130.7L458.156 123.21C460.583 120.177 463.29 117.867 466.276 116.28C469.31 114.647 472.483 113.83 475.796 113.83C479.53 113.83 482.75 114.483 485.456 115.79C488.163 117.05 490.24 118.87 491.686 121.25C493.18 123.583 493.926 126.383 493.926 129.65C493.926 131.937 493.53 134.083 492.736 136.09C491.943 138.097 490.66 140.15 488.886 142.25C487.16 144.303 484.803 146.637 481.816 149.25L474.466 155.62H493.856V165Z" fill="white"/>
<circle cx="81.5799" cy="144.423" r="81.5799" fill="url(#paint2_radial_121_49)" fill-opacity="0.68"/>
<path d="M56.57 165H23.53V114.95H35.15V154.85H56.57V165ZM75.6871 165H64.0671V114.95H83.8071C87.3071 114.95 90.3871 115.627 93.0471 116.98C95.7538 118.333 97.8538 120.223 99.3471 122.65C100.84 125.03 101.587 127.807 101.587 130.98C101.587 134.153 100.84 136.953 99.3471 139.38C97.8538 141.807 95.7538 143.697 93.0471 145.05C90.3871 146.357 87.3071 147.01 83.8071 147.01H74.9871V137.14H83.8071C85.6738 137.14 87.1438 136.58 88.2171 135.46C89.3371 134.34 89.8971 132.847 89.8971 130.98C89.8971 129.067 89.3371 127.573 88.2171 126.5C87.1438 125.38 85.6738 124.82 83.8071 124.82H75.6871V165ZM123.936 114.95H133.316V165H121.696V127.27L110.006 134.83V123.28L123.936 114.95Z" fill="white"/>
<defs>
<radialGradient id="paint0_radial_121_49" cx="0" cy="0" r="1" gradientUnits="userSpaceOnUse" gradientTransform="translate(259.153 418.277) rotate(90) scale(81.5799)">
<stop stop-color="#007600"/>
<stop offset="1" stop-color="#00DC00"/>
</radialGradient>
<radialGradient id="paint1_radial_121_49" cx="0" cy="0" r="1" gradientUnits="userSpaceOnUse" gradientTransform="translate(434.42 144.423) rotate(90) scale(81.5799)">
<stop stop-color="#990000"/>
<stop offset="0.25" stop-color="#FF0000"/>
</radialGradient>
<radialGradient id="paint2_radial_121_49" cx="0" cy="0" r="1" gradientUnits="userSpaceOnUse" gradientTransform="translate(81.5799 144.423) rotate(90) scale(81.5799)">
<stop offset="0.0480769" stop-color="#0000C4"/>
<stop offset="1" stop-color="#002FC8"/>
</radialGradient>
</defs>
</svg>
