<svg width="613" height="573" viewBox="0 0 613 573" fill="none" xmlns="http://www.w3.org/2000/svg">
<path d="M307 95C438.996 95 546 202.004 546 334C546 465.996 438.996 573 307 573C175.004 573 68 465.996 68 334C68 202.004 175.004 95 307 95ZM307 109C182.736 109 82 209.736 82 334C82 458.264 182.736 559 307 559C431.264 559 532 458.264 532 334C532 209.736 431.264 109 307 109Z" fill="#34DADD"/>
<path d="M306.5 134C416.681 134 506 223.319 506 333.5C506 443.681 416.681 533 306.5 533C196.319 533 107 443.681 107 333.5C107 223.319 196.319 134 306.5 134ZM306.5 147.493C203.771 147.493 120.493 230.771 120.493 333.5C120.493 436.229 203.771 519.508 306.5 519.508C409.229 519.508 492.508 436.229 492.508 333.5C492.508 230.771 409.229 147.493 306.5 147.493Z" fill="#34DADD"/>
<g filter="url(#filter0_d_130_2)">
<circle cx="307.213" cy="128.214" r="87.9811" transform="rotate(-63.1794 307.213 128.214)" fill="#FDFDFD"/>
</g>
<g filter="url(#filter1_d_130_2)">
<circle cx="137.534" cy="429.534" r="90.4527" transform="rotate(-63.1794 137.534 429.534)" fill="#FDFDFD"/>
</g>
<g filter="url(#filter2_d_130_2)">
<circle cx="481.51" cy="436.51" r="88.9461" transform="rotate(-63.1794 481.51 436.51)" fill="#FDFDFD"/>
</g>
<circle cx="306.678" cy="129.678" r="96.514" transform="rotate(-63.1794 306.678 129.678)" fill="url(#paint0_linear_130_2)" fill-opacity="0.9"/>
<path d="M279.795 155.082L240.619 155.11L240.575 95.7654L254.353 95.7553L254.388 143.065L279.786 143.047L279.795 155.082ZM302.462 155.065L288.684 155.075L288.641 95.7301L312.047 95.7129C316.197 95.7098 319.849 96.5095 323.004 98.1118C326.215 99.7142 328.706 101.953 330.479 104.829C332.252 107.65 333.14 110.942 333.142 114.704C333.145 118.467 332.262 121.788 330.494 124.666C328.725 127.545 326.237 129.788 323.029 131.395C319.876 132.946 316.224 133.724 312.074 133.727L301.616 133.735L301.608 122.032L312.066 122.024C314.279 122.022 316.022 121.357 317.293 120.028C318.62 118.699 319.283 116.928 319.281 114.715C319.28 112.446 318.615 110.676 317.286 109.404C316.012 108.077 314.268 107.414 312.055 107.416L302.427 107.423L302.462 155.065ZM359.628 95.6779L370.75 95.6698L370.794 155.015L357.016 155.025L356.983 110.288L343.129 119.262L343.118 105.567L359.628 95.6779Z" fill="white"/>
<circle cx="482.66" cy="435.659" r="96.5" transform="rotate(-63.1794 482.66 435.659)" fill="url(#paint1_radial_130_2)" fill-opacity="0.9"/>
<path d="M454.122 462.743L414.952 462.097L415.93 402.76L429.706 402.987L428.926 450.29L454.321 450.709L454.122 462.743ZM476.787 463.116L463.01 462.889L463.989 403.552L487.392 403.938C491.541 404.006 495.179 404.869 498.306 406.525C501.489 408.183 503.942 410.464 505.665 413.371C507.389 416.221 508.219 419.528 508.157 423.29C508.095 427.052 507.155 430.357 505.338 433.205C503.52 436.053 500.993 438.252 497.758 439.804C494.579 441.301 490.914 442.015 486.765 441.947L476.308 441.774L476.501 430.073L486.958 430.245C489.171 430.282 490.925 429.647 492.219 428.34C493.569 427.034 494.262 425.275 494.298 423.062C494.336 420.793 493.701 419.012 492.394 417.717C491.144 416.369 489.412 415.676 487.199 415.639L477.572 415.481L476.787 463.116ZM555.234 464.41L514.32 463.735L514.506 452.449L536.405 433.302C537.978 431.889 539.216 430.637 540.119 429.545C541.079 428.398 541.761 427.303 542.166 426.258C542.626 425.214 542.865 424.139 542.883 423.032C542.921 420.709 542.205 418.843 540.734 417.435C539.264 415.972 537.256 415.22 534.711 415.178C532.498 415.141 530.357 415.798 528.287 417.147C526.273 418.442 524.276 420.457 522.294 423.191L513.726 414.168C516.662 410.619 519.917 407.933 523.488 406.11C527.117 404.233 530.895 403.327 534.823 403.392C539.249 403.465 543.054 404.302 546.237 405.904C549.421 407.451 551.848 409.649 553.516 412.499C555.241 415.295 556.071 418.629 556.008 422.502C555.963 425.213 555.451 427.75 554.471 430.113C553.491 432.477 551.93 434.886 549.786 437.341C547.699 439.742 544.859 442.462 541.267 445.502L532.429 452.91L555.417 453.289L555.234 464.41Z" fill="white"/>
<circle cx="129.66" cy="432.659" r="96.5" transform="rotate(-63.1794 129.66 432.659)" fill="url(#paint2_linear_130_2)" fill-opacity="0.9"/>
<path d="M99.1872 463.957L60.0171 464.639L58.9849 405.303L72.7608 405.063L73.5837 452.366L98.9778 451.924L99.1872 463.957ZM121.851 463.563L108.075 463.803L107.043 404.467L130.445 404.06C134.595 403.987 138.26 404.726 141.442 406.276C144.678 407.824 147.207 410.022 149.027 412.868C150.847 415.659 151.789 418.935 151.855 422.697C151.92 426.459 151.093 429.794 149.373 432.702C147.652 435.609 145.202 437.893 142.021 439.554C138.894 441.158 135.256 441.996 131.107 442.068L120.65 442.25L120.447 430.549L130.903 430.367C133.116 430.328 134.847 429.634 136.097 428.284C137.401 426.933 138.034 425.151 137.996 422.938C137.957 420.67 137.262 418.911 135.912 417.662C134.616 416.356 132.862 415.722 130.649 415.761L121.022 415.928L121.851 463.563ZM157.165 454.648L165.557 445.536C167.648 448.046 169.755 449.863 171.878 450.988C174.055 452.057 176.36 452.57 178.795 452.528C180.842 452.492 182.606 452.13 184.088 451.44C185.571 450.75 186.717 449.817 187.526 448.641C188.335 447.409 188.725 445.991 188.697 444.387C188.661 442.284 187.83 440.638 186.204 439.449C184.579 438.26 182.189 437.693 179.035 437.748L174.222 437.831L174.024 426.462L178.838 426.378C181.217 426.337 183.06 425.724 184.368 424.539C185.73 423.353 186.395 421.792 186.361 419.855C186.331 418.085 185.613 416.603 184.209 415.41C182.859 414.161 181.05 413.556 178.781 413.595C176.236 413.64 174.06 414.176 172.251 415.203C170.498 416.23 168.648 418.061 166.702 420.696L157.908 411.468C160.51 408.324 163.679 405.972 167.415 404.413C171.15 402.798 175.314 401.951 179.906 401.871C183.889 401.802 187.415 402.46 190.483 403.845C193.606 405.23 196.047 407.18 197.806 409.695C199.62 412.154 200.555 415.015 200.612 418.279C200.661 421.101 199.929 423.576 198.417 425.706C196.904 427.835 194.747 429.505 191.946 430.716C189.145 431.927 185.835 432.566 182.018 432.632L183.624 429.533C187.608 429.463 191.021 430.04 193.865 431.264C196.763 432.431 198.979 434.163 200.513 436.461C202.048 438.758 202.844 441.567 202.901 444.887C202.966 448.593 202.054 451.874 200.167 454.73C198.279 457.53 195.633 459.734 192.23 461.343C188.827 462.951 184.829 463.796 180.237 463.876C175.203 463.963 170.818 463.265 167.085 461.78C163.35 460.24 160.043 457.863 157.165 454.648Z" fill="white"/>
<defs>
<filter id="filter0_d_130_2" x="215.213" y="40.2139" width="184.001" height="184" filterUnits="userSpaceOnUse" color-interpolation-filters="sRGB">
<feFlood flood-opacity="0" result="BackgroundImageFix"/>
<feColorMatrix in="SourceAlpha" type="matrix" values="0 0 0 0 0 0 0 0 0 0 0 0 0 0 0 0 0 0 127 0" result="hardAlpha"/>
<feOffset dy="4"/>
<feGaussianBlur stdDeviation="2"/>
<feComposite in2="hardAlpha" operator="out"/>
<feColorMatrix type="matrix" values="0 0 0 0 0.985577 0 0 0 0 0.944511 0 0 0 0 0.944511 0 0 0 1 0"/>
<feBlend mode="normal" in2="BackgroundImageFix" result="effect1_dropShadow_130_2"/>
<feBlend mode="normal" in="SourceGraphic" in2="effect1_dropShadow_130_2" result="shape"/>
</filter>
<filter id="filter1_d_130_2" x="43.0625" y="339.062" width="188.944" height="188.944" filterUnits="userSpaceOnUse" color-interpolation-filters="sRGB">
<feFlood flood-opacity="0" result="BackgroundImageFix"/>
<feColorMatrix in="SourceAlpha" type="matrix" values="0 0 0 0 0 0 0 0 0 0 0 0 0 0 0 0 0 0 127 0" result="hardAlpha"/>
<feOffset dy="4"/>
<feGaussianBlur stdDeviation="2"/>
<feComposite in2="hardAlpha" operator="out"/>
<feColorMatrix type="matrix" values="0 0 0 0 0.985577 0 0 0 0 0.944511 0 0 0 0 0.944511 0 0 0 1 0"/>
<feBlend mode="normal" in2="BackgroundImageFix" result="effect1_dropShadow_130_2"/>
<feBlend mode="normal" in="SourceGraphic" in2="effect1_dropShadow_130_2" result="shape"/>
</filter>
<filter id="filter2_d_130_2" x="388.545" y="347.544" width="185.931" height="185.931" filterUnits="userSpaceOnUse" color-interpolation-filters="sRGB">
<feFlood flood-opacity="0" result="BackgroundImageFix"/>
<feColorMatrix in="SourceAlpha" type="matrix" values="0 0 0 0 0 0 0 0 0 0 0 0 0 0 0 0 0 0 127 0" result="hardAlpha"/>
<feOffset dy="4"/>
<feGaussianBlur stdDeviation="2"/>
<feComposite in2="hardAlpha" operator="out"/>
<feColorMatrix type="matrix" values="0 0 0 0 0.985577 0 0 0 0 0.944511 0 0 0 0 0.944511 0 0 0 1 0"/>
<feBlend mode="normal" in2="BackgroundImageFix" result="effect1_dropShadow_130_2"/>
<feBlend mode="normal" in="SourceGraphic" in2="effect1_dropShadow_130_2" result="shape"/>
</filter>
<linearGradient id="paint0_linear_130_2" x1="341.581" y1="231.193" x2="281.477" y2="41.5193" gradientUnits="userSpaceOnUse">
<stop offset="0.173077" stop-color="#F20000"/>
<stop offset="0.961538" stop-color="#8C0000"/>
</linearGradient>
<radialGradient id="paint1_radial_130_2" cx="0" cy="0" r="1" gradientUnits="userSpaceOnUse" gradientTransform="translate(482.754 443.415) rotate(-103.624) scale(88.0856)">
<stop offset="0.0817308" stop-color="#2E2EE5"/>
<stop offset="1" stop-color="#0000CA"/>
</radialGradient>
<linearGradient id="paint2_linear_130_2" x1="125.067" y1="516.349" x2="122.497" y2="355.277" gradientUnits="userSpaceOnUse">
<stop offset="0.0961538" stop-color="#008F00"/>
<stop offset="1" stop-color="#002900"/>
</linearGradient>
</defs>
</svg>
