<svg width="104" height="85" xmlns="http://www.w3.org/2000/svg" xmlns:xlink="http://www.w3.org/1999/xlink" xml:space="preserve" overflow="hidden"><defs><clipPath id="clip0"><rect x="113" y="463" width="104" height="85"/></clipPath></defs><g clip-path="url(#clip0)" transform="translate(-113 -463)"><path d="M6.67672 46.4156 5.83595 46.4156C3.04162 46.4156 0.618215 44.3878 0.1731 41.544-0.593486 38.3293 1.3848 35.4855 4.64897 35.1146 18.769 32.2708 34.1255 25.0006 50.298 13.3287L43.4481 5.24246 75.3727 0 64.047 30.2678 57.5682 22.6019C39.7883 35.5103 23.2201 43.5965 6.67672 46.4156L6.67672 46.4156ZM13.5265 82.7171 24.8275 82.7171 24.8275 58.5078 13.5265 58.5078 13.5265 82.7171ZM102.401 48.3938 102.401 48.3938C100.794 35.9059 97.9499 31.0344 91.5205 26.608 90.3088 26.2123 89.468 25.8414 88.2811 25.421L84.2503 25.421C83.0386 25.8414 81.4065 26.237 80.5905 27.4487 74.532 31.4795 72.1333 36.722 70.1056 48.4186 70.1056 50.0507 71.3173 51.2624 72.9493 51.658L73.3697 51.658C74.5567 51.658 76.1641 50.4463 76.1641 49.2099 77.0048 45.1791 77.4005 41.9644 78.1918 39.541L78.1918 49.2099C78.1918 50.0507 78.6122 50.4216 79.0078 51.2376 78.6122 51.2376 78.6122 51.658 78.6122 51.658L78.6122 80.3185C78.6122 82.3215 80.2195 83.9536 82.2473 83.9536 84.275 83.9536 85.8824 82.3215 85.8824 80.3185L85.8824 55.6888 86.278 55.6888 86.278 80.3185C86.278 82.3215 87.8854 83.9536 89.9132 83.9536 91.9409 83.9536 93.5483 82.3215 93.5483 80.3185L93.5483 52.0537C93.9686 51.2376 94.3643 50.0507 94.3643 49.2099L94.3643 38.7497C95.1803 41.1731 95.9964 44.3878 96.7877 49.2099 96.7877 50.4216 98.0241 51.658 99.6315 51.658L100.052 51.658C101.684 51.2376 102.896 50.0507 102.475 48.4186L102.475 48.4186ZM93.9439 17.3347 93.9439 17.3347C93.9439 12.8836 90.3088 9.66888 86.2533 9.66888 81.8022 9.66888 78.5875 12.8836 78.5875 17.3347 78.5875 21.3655 81.8022 25.0006 86.2533 25.0006 90.3088 25.0006 93.9439 21.3655 93.9439 17.3347L93.9439 17.3347ZM53.117 82.7171 64.8384 82.7171 64.8384 38.7497 53.117 38.7497 53.117 82.7171ZM33.3094 82.7171 44.6351 82.7171 44.6351 49.2099 33.3094 49.2099 33.3094 82.7171Z" fill="#DEEBF7" fill-rule="evenodd" transform="matrix(1.01463 0 0 1 113 463.523)"/></g></svg>