<?xml version="1.0" encoding="utf-8"?>
<!-- Generator: Adobe Illustrator 28.0.0, SVG Export Plug-In . SVG Version: 6.00 Build 0)  -->
<svg version="1.1" id="Layer_1" xmlns="http://www.w3.org/2000/svg" xmlns:xlink="http://www.w3.org/1999/xlink" x="0px" y="0px"
	 viewBox="0 0 300 350" style="enable-background:new 0 0 300 350;" xml:space="preserve">
<style type="text/css">
	.st0{fill:#616E7D;}
	.st1{fill:#AAD4C8;}
	.st2{fill:#82BFAB;}
	.st3{fill:#F4F7FF;}
	.st4{fill:#00485F;}
</style>
<path class="st0" d="M39.1,4.1c-5.6,0-11,2.3-15,6.2c-3.9,3.9-6.2,9.4-6.2,14.9v2.7h263.9v-2.7c0-5.6-2.3-11-6.2-14.9
	c-3.9-3.9-9.4-6.2-14.9-6.2C260.7,4.1,39.1,4.1,39.1,4.1z"/>
<path class="st0" d="M24.1,338.8c3.9,3.9,9.4,6.2,15,6.2h221.6c5.6,0,11-2.3,14.9-6.2c3.9-3.9,6.2-9.4,6.2-14.9V39.2H18v284.7
	C18,329.4,20.2,334.9,24.1,338.8z M44.1,176v-21.9h54.3V176c0,1.3-0.5,2.7-1.5,3.6c-0.9,0.9-2.3,1.5-3.6,1.5H49.2
	c-1.3,0-2.6-0.5-3.6-1.5C44.7,178.6,44.1,177.3,44.1,176z M101.5,318.8c0,1.3-0.5,2.7-1.5,3.6c-0.9,0.9-2.3,1.5-3.6,1.5H52.3
	c-1.3,0-2.6-0.5-3.6-1.5c-0.9-0.9-1.5-2.3-1.5-3.6v-44.1c0-1.3,0.5-2.7,1.5-3.6c0.9-0.9,2.3-1.5,3.6-1.5h44.1c1.3,0,2.7,0.5,3.6,1.5
	c0.9,0.9,1.5,2.3,1.5,3.6C101.5,274.7,101.5,318.8,101.5,318.8z M101.5,249.1c0,1.3-0.5,2.7-1.5,3.6c-0.9,0.9-2.3,1.5-3.6,1.5H52.3
	c-1.3,0-2.6-0.5-3.6-1.5c-1-0.9-1.5-2.3-1.5-3.6V205c0-1.3,0.5-2.7,1.5-3.6c0.9-0.9,2.3-1.5,3.6-1.5h44.1c1.3,0,2.6,0.5,3.6,1.5
	c0.9,0.9,1.5,2.3,1.5,3.6C101.5,205,101.5,249.1,101.5,249.1z M114.1,176v-21.9h54.3V176c0,1.3-0.5,2.7-1.5,3.6
	c-0.9,0.9-2.3,1.5-3.6,1.5h-44.1c-1.3,0-2.6-0.5-3.6-1.5C114.6,178.6,114.1,177.3,114.1,176z M116.7,205c0-1.3,0.5-2.7,1.5-3.6
	c0.9-0.9,2.3-1.5,3.6-1.5H166c1.3,0,2.6,0.5,3.6,1.5c0.9,0.9,1.5,2.3,1.5,3.6v44.1c0,1.3-0.5,2.7-1.5,3.6c-0.9,0.9-2.3,1.5-3.6,1.5
	h-44.1c-1.3,0-2.6-0.5-3.6-1.5c-0.9-0.9-1.5-2.3-1.5-3.6L116.7,205L116.7,205z M171.3,318.8c0,1.3-0.5,2.7-1.5,3.6
	c-0.9,0.9-2.3,1.5-3.6,1.5h-44.1c-1.3,0-2.6-0.5-3.6-1.5c-1-0.9-1.5-2.3-1.5-3.6v-44.1c0-1.3,0.5-2.7,1.5-3.6
	c0.9-0.9,2.3-1.5,3.6-1.5h44.1c1.3,0,2.6,0.5,3.6,1.5c0.9,0.9,1.5,2.3,1.5,3.6V318.8z M252.6,318.8c0,1.4-0.5,2.7-1.5,3.6
	c-1,1-2.3,1.5-3.6,1.5h-54.8c-1.4,0-2.7-0.5-3.6-1.5c-1-1-1.5-2.3-1.5-3.6V200.7c0-1.4,0.5-2.7,1.5-3.6c1-1,2.3-1.5,3.6-1.5h54.8
	c1.3,0,2.7,0.5,3.6,1.5c1,1,1.5,2.3,1.5,3.6V318.8z M189.8,176v-21.9h54.3V176c0,1.3-0.5,2.7-1.5,3.6c-1,0.9-2.3,1.5-3.6,1.5h-44.1
	c-1.3,0-2.7-0.5-3.6-1.5C190.4,178.6,189.8,177.3,189.8,176z M37.1,52.1h225.6v85.8H37.1V52.1z"/>
<path class="st1" d="M192.7,195.6c-1.4,0-2.7,0.5-3.6,1.5c-1,1-1.5,2.3-1.5,3.6v118.1c0,1.4,0.5,2.7,1.5,3.6c1,1,2.3,1.5,3.6,1.5
	h54.8c1.4,0,2.7-0.5,3.6-1.5c1-1,1.5-2.3,1.5-3.6V200.7c0-1.4-0.5-2.7-1.5-3.6c-1-1-2.3-1.5-3.6-1.5L192.7,195.6L192.7,195.6z
	 M234.4,267.3h-30.2v-5.1h30.2V267.3z M234.4,253.6h-30.2v-5.1h30.2V253.6z"/>
<path class="st2" d="M121.8,199.9c-1.3,0-2.6,0.5-3.6,1.5c-0.9,0.9-1.5,2.3-1.5,3.6v44.1c0,1.3,0.5,2.7,1.5,3.6
	c0.9,0.9,2.3,1.5,3.6,1.5H166c1.3,0,2.6-0.5,3.6-1.5c0.9-0.9,1.5-2.3,1.5-3.6V205c0-1.3-0.5-2.7-1.5-3.6c-0.9-0.9-2.3-1.5-3.6-1.5
	H121.8z"/>
<path class="st2" d="M122.1,269.6c-1.3,0-2.6,0.5-3.6,1.5c-1,0.9-1.5,2.3-1.5,3.6v44.1c0,1.3,0.5,2.7,1.5,3.6
	c0.9,0.9,2.3,1.5,3.6,1.5h44.1c1.3,0,2.6-0.5,3.6-1.5c0.9-0.9,1.5-2.3,1.5-3.6v-44.1c0-1.3-0.5-2.7-1.5-3.6
	c-0.9-0.9-2.3-1.5-3.6-1.5H122.1z"/>
<path class="st2" d="M52.3,199.9c-1.3,0-2.6,0.5-3.6,1.5c-1,0.9-1.5,2.3-1.5,3.6v44.1c0,1.3,0.5,2.7,1.5,3.6
	c0.9,0.9,2.3,1.5,3.6,1.5h44.1c1.3,0,2.6-0.5,3.6-1.5c0.9-0.9,1.5-2.3,1.5-3.6V205c0-1.3-0.5-2.7-1.5-3.6c-0.9-0.9-2.3-1.5-3.6-1.5
	H52.3z"/>
<path class="st2" d="M115.6,179.6c0.9,0.9,2.3,1.5,3.6,1.5h44.1c1.3,0,2.6-0.5,3.6-1.5c0.9-0.9,1.5-2.3,1.5-3.6v-21.9h-54.3V176
	C114.1,177.3,114.6,178.6,115.6,179.6z"/>
<path class="st2" d="M191.3,179.6c0.9,0.9,2.3,1.5,3.6,1.5H239c1.3,0,2.6-0.5,3.6-1.5c0.9-0.9,1.5-2.3,1.5-3.6v-21.9h-54.3V176
	C189.8,177.3,190.4,178.6,191.3,179.6z"/>
<path class="st2" d="M45.6,179.6c0.9,0.9,2.3,1.5,3.6,1.5h44.1c1.3,0,2.6-0.5,3.6-1.5c0.9-0.9,1.5-2.3,1.5-3.6v-21.9H44.1V176
	C44.1,177.3,44.7,178.6,45.6,179.6z"/>
<path class="st2" d="M52.3,269.6c-1.3,0-2.7,0.5-3.6,1.5c-0.9,0.9-1.5,2.3-1.5,3.6v44.1c0,1.3,0.5,2.7,1.5,3.6s2.3,1.5,3.6,1.5h44.1
	c1.3,0,2.7-0.5,3.6-1.5c0.9-0.9,1.5-2.3,1.5-3.6v-44.1c0-1.3-0.5-2.7-1.5-3.6c-0.9-0.9-2.3-1.5-3.6-1.5H52.3z"/>
<rect x="204.2" y="248.6" class="st0" width="30.2" height="5.1"/>
<rect x="204.2" y="262.2" class="st0" width="30.2" height="5.1"/>
<rect x="18" y="27.9" class="st1" width="263.9" height="11.3"/>
<rect x="37.1" y="52.1" class="st3" width="225.7" height="85.8"/>
<g>
	<path class="st4" d="M47.5,93.9l-5-10.4h3.8l1.6,3.8c0.5,1.2,0.9,2.3,1.4,3.6h0.1c0.5-1.2,1-2.4,1.5-3.6l1.6-3.8h3.7l-5,10.4v5.3
		h-3.5V93.9z"/>
	<path class="st4" d="M57.6,93.2c0-4,2.9-6.2,6.1-6.2s6.1,2.3,6.1,6.2c0,4-2.9,6.2-6.1,6.2S57.6,97.2,57.6,93.2z M66.2,93.2
		c0-2.1-0.8-3.4-2.5-3.4s-2.5,1.3-2.5,3.4c0,2.1,0.8,3.4,2.5,3.4S66.2,95.3,66.2,93.2z"/>
	<path class="st4" d="M72.4,94.6v-7.4h3.5v6.9c0,1.6,0.4,2.3,1.7,2.3c0.9,0,1.5-0.3,2.3-1.4v-7.8h3.5v11.9h-2.9l-0.3-1.7h-0.1
		c-1.1,1.2-2.3,2-4,2C73.5,99.5,72.4,97.6,72.4,94.6z"/>
	<path class="st4" d="M88.1,87.3H91l0.3,2.6h0.1c1.2-1.9,2.9-2.9,4.8-2.9c1,0,1.6,0.2,2.3,0.5l-0.7,3c-0.7-0.2-1.2-0.3-2.1-0.3
		c-1.5,0-3,0.8-4,2.9v6.2h-3.5V87.3z"/>
	<path class="st4" d="M119.5,86.5h-4.7v-3h12.9v3h-4.7v12.7h-3.5V86.5z"/>
	<path class="st4" d="M135.2,90h-4.8v-2.8h8.3v11.9h-3.5V90z M134.4,83.3c0-1.3,1-2.2,2.3-2.2c1.4,0,2.3,0.9,2.3,2.2
		c0,1.3-1,2.2-2.3,2.2C135.4,85.4,134.4,84.6,134.4,83.3z"/>
	<path class="st4" d="M143.7,87.3h2.7l0.3,1.5h0.1c0.4-1,1.2-1.8,2.6-1.8c1,0,1.8,0.7,2.1,1.9c0.4-1.1,1.3-1.9,2.6-1.9
		c1.7,0,2.7,1.5,2.7,3.8v8.4h-3.4v-8.1c0-0.7-0.2-1.1-0.6-1.1c-0.5,0-0.8,0.4-1.1,1.2v8h-2.8v-8.1c0-0.7-0.2-1.1-0.7-1.1
		c-0.4,0-0.7,0.4-1.1,1.2v8h-3.4V87.3z"/>
	<path class="st4" d="M158.6,93.2c0-3.9,3-6.2,6.2-6.2c3.7,0,5.6,2.5,5.6,5.7c0,0.6-0.1,1.3-0.1,1.6h-9v-2.4h6.6l-0.6,0.7
		c0-1.9-0.8-2.9-2.4-2.9c-1.7,0-2.9,1.2-2.9,3.5c0,2.5,1.3,3.6,3.7,3.6c1.1,0,2-0.3,3.1-0.8l1.2,2.1c-1.4,0.9-3.1,1.4-4.7,1.4
		C161.5,99.5,158.6,97.2,158.6,93.2z"/>
	<path class="st4" d="M186.4,83.5h3.8l1.9,7.3c0.5,1.7,0.8,3.3,1.3,5h0.1c0.5-1.7,0.8-3.3,1.3-5l1.8-7.3h3.6l-4.7,15.6h-4.3
		L186.4,83.5z"/>
	<path class="st4" d="M202,95.9c0-2.7,2.2-4,7.8-4.4c-0.1-1.1-0.9-1.7-2.5-1.7c-1.1,0-2.3,0.4-3.6,1.1l-1.3-2.3
		c1.7-0.9,3.5-1.6,5.6-1.6c3.3,0,5.4,1.7,5.4,5.4v6.8h-2.9l-0.3-1.3h-0.1c-1.2,0.9-2.7,1.6-4.2,1.6C203.5,99.5,202,97.9,202,95.9z
		 M209.8,95.6v-2c-3.5,0.2-4.4,0.9-4.4,2c0,0.8,0.6,1.1,1.6,1.1C208.1,96.7,209,96.2,209.8,95.6z"/>
	<path class="st4" d="M219.8,94.5v-9.4h-3.7v-2.8h7.3v12.3c0,1.5,0.9,2,1.9,2c0.6,0,1.1-0.1,1.9-0.4l0.8,2.6
		c-1.2,0.4-2.1,0.6-3.6,0.6C221.4,99.5,219.8,97.5,219.8,94.5z"/>
	<path class="st4" d="M230.8,94.6v-7.4h3.5v6.9c0,1.6,0.4,2.3,1.7,2.3c0.9,0,1.5-0.3,2.3-1.4v-7.8h3.5v11.9H239l-0.3-1.7h-0.1
		c-1.1,1.2-2.3,2-4,2C231.9,99.5,230.8,97.6,230.8,94.6z"/>
	<path class="st4" d="M245,93.2c0-3.9,3-6.2,6.2-6.2c3.7,0,5.6,2.5,5.6,5.7c0,0.6-0.1,1.3-0.1,1.6h-9v-2.4h6.6l-0.6,0.7
		c0-1.9-0.8-2.9-2.4-2.9c-1.7,0-2.9,1.2-2.9,3.5c0,2.5,1.3,3.6,3.7,3.6c1.1,0,2-0.3,3.1-0.8l1.2,2.1c-1.4,0.9-3.1,1.4-4.7,1.4
		C247.9,99.5,245,97.2,245,93.2z"/>
</g>
</svg>
