<svg width="135" height="149" xmlns="http://www.w3.org/2000/svg" xmlns:xlink="http://www.w3.org/1999/xlink" xml:space="preserve" overflow="hidden"><g transform="translate(-268 -516)"><path d="M85.0489 125.812C79.287 130.643 71.7247 133.706 63.5038 133.766 40.9842 133.93 28.3868 118.41 28.3868 118.41 41.7618 133.084 82.4074 137.87 81.7951 114.389 81.0991 87.7202 39.1597 103.082 31.6572 103.225 26.1137 103.331 21.1363 101.996 16.8612 100.045 6.35485 95.25 0.0881522 86.7347 0.0881522 86.7347 6.03382 109.116 15.2494 124.156 25.9062 133.803 53.2509 158.558 90.0836 147.807 105.508 134.433 106.894 133.232 108.208 131.968 109.449 130.649 112.829 127.053 115.667 123.047 117.94 118.78 117.94 118.78 122.769 111.305 125.7 97.3643L97.7125 97.3643C97.3046 108.194 93.718 118.546 85.0484 125.812M67.5 18.2352C76.5998 18.2352 83.9761 25.6115 83.9761 34.7113 83.9761 43.8112 76.5998 51.1879 67.5 51.1879 58.4002 51.1879 51.0239 43.8112 51.0239 34.7113 51.0239 25.6115 58.4002 18.2352 67.5 18.2352ZM0 0C17.1875 12.9663 45.1265 73.9816 44.5975 95.1267 44.5761 95.9753 44.5449 96.8371 44.505 97.7108 51.0397 96.5972 59.8163 95.4662 65.9396 96.0815 76.8691 97.1801 84.8388 103.667 86.2448 114.914 86.2448 114.914 88.8714 113.601 91.4318 109.179L91.4318 109.181C90.8862 104.297 90.5121 99.5308 90.402 95.1263 89.8731 73.9812 117.812 12.9658 135-0.000438568 114.737 5.647 91.084 51.4791 67.5 57.4533 43.916 51.4796 20.2632 5.64744 0 0Z" fill="#DEEBF7" fill-rule="evenodd" transform="matrix(1 0 0 1.00212 268 516.012)"/></g></svg>